<mxfile modified="2022-07-11T09:46:43.977Z" host="app.diagrams.net" agent="5.0 (Windows NT 10.0; Win64; x64) AppleWebKit/537.36 (KHTML, like Gecko) Chrome/103.0.0.0 Safari/537.36" etag="3jdeTY4NtvsMAZxDVtEy" version="20.0.4" type="github">
  <diagram id="Ht1M8jgEwFfnCIfOTk4-" name="Page-1">
    <mxGraphModel dx="1221" dy="644" grid="1" gridSize="10" guides="1" tooltips="1" connect="1" arrows="1" fold="1" page="1" pageScale="1" pageWidth="1169" pageHeight="827" math="0" shadow="0">
      <root>
        <mxCell id="0" />
        <mxCell id="1" parent="0" />
        <mxCell id="-QjtrjUzRDEMRZ5MF8oH-47" value="AWS [API Gateway - Lambda - DynamoDB] Implementation" style="text;html=1;resizable=0;points=[];autosize=1;align=left;verticalAlign=top;spacingTop=-4;fontSize=30;fontStyle=1" parent="1" vertex="1">
          <mxGeometry x="40" y="20" width="860" height="40" as="geometry" />
        </mxCell>
        <mxCell id="-QjtrjUzRDEMRZ5MF8oH-48" value="Blueprint" style="text;html=1;resizable=0;points=[];autosize=1;align=left;verticalAlign=top;spacingTop=-4;fontSize=16;" parent="1" vertex="1">
          <mxGeometry x="44.5" y="70" width="90" height="30" as="geometry" />
        </mxCell>
        <mxCell id="-QjtrjUzRDEMRZ5MF8oH-49" value="Legend" style="text;html=1;resizable=0;points=[];autosize=1;align=left;verticalAlign=top;spacingTop=-4;fontSize=16;fontStyle=1" parent="1" vertex="1">
          <mxGeometry x="44.5" y="120" width="80" height="30" as="geometry" />
        </mxCell>
        <mxCell id="SCVMTBWpLvtzJIhz15lM-1" value="" style="line;strokeWidth=2;html=1;fontSize=14;" parent="1" vertex="1">
          <mxGeometry x="40" y="100" width="1000" height="10" as="geometry" />
        </mxCell>
        <mxCell id="YS3wjuGzkb4AKNoPu0pF-4" value="" style="rounded=1;whiteSpace=wrap;html=1;" vertex="1" parent="1">
          <mxGeometry x="74.5" y="280" width="110" height="107.5" as="geometry" />
        </mxCell>
        <mxCell id="YS3wjuGzkb4AKNoPu0pF-1" value="&lt;b&gt;IAMRole&lt;/b&gt;&lt;br&gt;Role" style="sketch=0;outlineConnect=0;fontColor=#232F3E;gradientColor=none;fillColor=#BF0816;strokeColor=none;dashed=0;verticalLabelPosition=bottom;verticalAlign=top;align=center;html=1;fontSize=12;fontStyle=0;aspect=fixed;pointerEvents=1;shape=mxgraph.aws4.role;" vertex="1" parent="1">
          <mxGeometry x="99.13999999999999" y="300.5" width="60.72" height="34.25" as="geometry" />
        </mxCell>
        <mxCell id="YS3wjuGzkb4AKNoPu0pF-10" style="edgeStyle=orthogonalEdgeStyle;rounded=0;orthogonalLoop=1;jettySize=auto;html=1;exitX=0.5;exitY=1;exitDx=0;exitDy=0;entryX=0.5;entryY=1;entryDx=0;entryDy=0;fontColor=#FF3333;fillColor=#e1d5e7;strokeColor=#9673a6;strokeWidth=3;" edge="1" parent="1" source="YS3wjuGzkb4AKNoPu0pF-9" target="YS3wjuGzkb4AKNoPu0pF-4">
          <mxGeometry relative="1" as="geometry" />
        </mxCell>
        <mxCell id="YS3wjuGzkb4AKNoPu0pF-9" value="" style="rounded=1;whiteSpace=wrap;html=1;" vertex="1" parent="1">
          <mxGeometry x="200" y="280" width="110" height="107.5" as="geometry" />
        </mxCell>
        <mxCell id="YS3wjuGzkb4AKNoPu0pF-3" value="&lt;b&gt;DynamoDBTable&lt;/b&gt;&lt;br&gt;Table" style="sketch=0;points=[[0,0,0],[0.25,0,0],[0.5,0,0],[0.75,0,0],[1,0,0],[0,1,0],[0.25,1,0],[0.5,1,0],[0.75,1,0],[1,1,0],[0,0.25,0],[0,0.5,0],[0,0.75,0],[1,0.25,0],[1,0.5,0],[1,0.75,0]];outlineConnect=0;fontColor=#232F3E;gradientColor=#4D72F3;gradientDirection=north;fillColor=#3334B9;strokeColor=#ffffff;dashed=0;verticalLabelPosition=bottom;verticalAlign=top;align=center;html=1;fontSize=12;fontStyle=0;aspect=fixed;shape=mxgraph.aws4.resourceIcon;resIcon=mxgraph.aws4.dynamodb;" vertex="1" parent="1">
          <mxGeometry x="227.5" y="285" width="62.5" height="62.5" as="geometry" />
        </mxCell>
        <mxCell id="YS3wjuGzkb4AKNoPu0pF-11" value="&lt;b style=&quot;&quot;&gt;&lt;font color=&quot;#6600cc&quot;&gt;Purple Arrow = Dependencies&lt;/font&gt;&lt;br&gt;&lt;font color=&quot;#333333&quot;&gt;Grey Arrow = Reference &amp;amp; Association&lt;/font&gt;&lt;font color=&quot;#6600cc&quot;&gt;&amp;nbsp;&lt;/font&gt;&lt;br&gt;&lt;/b&gt;" style="text;html=1;align=left;verticalAlign=middle;resizable=0;points=[];autosize=1;strokeColor=none;fillColor=none;fontColor=#FF3333;" vertex="1" parent="1">
          <mxGeometry x="44.5" y="145" width="250" height="40" as="geometry" />
        </mxCell>
        <mxCell id="YS3wjuGzkb4AKNoPu0pF-16" style="edgeStyle=orthogonalEdgeStyle;rounded=0;orthogonalLoop=1;jettySize=auto;html=1;exitX=0.006;exitY=0.459;exitDx=0;exitDy=0;entryX=1;entryY=0.5;entryDx=0;entryDy=0;fontColor=#000000;fillColor=#e1d5e7;strokeColor=#9673a6;strokeWidth=3;exitPerimeter=0;" edge="1" parent="1" source="YS3wjuGzkb4AKNoPu0pF-18" target="YS3wjuGzkb4AKNoPu0pF-9">
          <mxGeometry relative="1" as="geometry" />
        </mxCell>
        <mxCell id="YS3wjuGzkb4AKNoPu0pF-17" style="edgeStyle=orthogonalEdgeStyle;rounded=0;orthogonalLoop=1;jettySize=auto;html=1;exitX=0;exitY=0.5;exitDx=0;exitDy=0;fontColor=#000000;entryX=0;entryY=0.5;entryDx=0;entryDy=0;strokeWidth=5;fillColor=#f5f5f5;strokeColor=#666666;" edge="1" parent="1" source="YS3wjuGzkb4AKNoPu0pF-13" target="YS3wjuGzkb4AKNoPu0pF-4">
          <mxGeometry relative="1" as="geometry">
            <mxPoint x="44.5" y="337.5" as="targetPoint" />
            <Array as="points">
              <mxPoint x="350" y="334" />
              <mxPoint x="350" y="428" />
              <mxPoint x="45" y="428" />
              <mxPoint x="45" y="334" />
            </Array>
          </mxGeometry>
        </mxCell>
        <mxCell id="YS3wjuGzkb4AKNoPu0pF-13" value="" style="rounded=1;whiteSpace=wrap;html=1;" vertex="1" parent="1">
          <mxGeometry x="360" y="280" width="110" height="107.5" as="geometry" />
        </mxCell>
        <mxCell id="YS3wjuGzkb4AKNoPu0pF-15" value="&lt;font color=&quot;#000000&quot;&gt;&lt;b&gt;LambdaFunction&lt;/b&gt;&lt;br&gt;Function&lt;br&gt;&lt;/font&gt;" style="outlineConnect=0;dashed=0;verticalLabelPosition=bottom;verticalAlign=top;align=center;html=1;shape=mxgraph.aws3.lambda;fillColor=#F58534;gradientColor=none;fontColor=#6600CC;" vertex="1" parent="1">
          <mxGeometry x="387.5" y="286.63" width="55" height="62" as="geometry" />
        </mxCell>
        <mxCell id="YS3wjuGzkb4AKNoPu0pF-18" value="" style="rounded=1;whiteSpace=wrap;html=1;fillColor=#ffe6cc;strokeColor=#d79b00;dashed=1;strokeWidth=3;dashPattern=1 1;" vertex="1" parent="1">
          <mxGeometry x="520" y="185.63" width="320" height="320" as="geometry" />
        </mxCell>
        <mxCell id="YS3wjuGzkb4AKNoPu0pF-19" value="" style="rounded=1;whiteSpace=wrap;html=1;" vertex="1" parent="1">
          <mxGeometry x="560" y="161.88" width="70" height="70" as="geometry" />
        </mxCell>
        <mxCell id="YS3wjuGzkb4AKNoPu0pF-20" value="" style="outlineConnect=0;dashed=0;verticalLabelPosition=bottom;verticalAlign=top;align=center;html=1;shape=mxgraph.aws3.api_gateway;fillColor=#D9A741;gradientColor=none;dashPattern=1 1;fontColor=#000000;strokeColor=#D79B00;strokeWidth=3;" vertex="1" parent="1">
          <mxGeometry x="573" y="171.88" width="44" height="50" as="geometry" />
        </mxCell>
        <mxCell id="YS3wjuGzkb4AKNoPu0pF-21" value="&lt;b&gt;API Gateway (Rest API)&lt;/b&gt;" style="text;html=1;align=left;verticalAlign=middle;resizable=0;points=[];autosize=1;strokeColor=none;fillColor=none;fontColor=#000000;" vertex="1" parent="1">
          <mxGeometry x="630" y="181.88" width="160" height="30" as="geometry" />
        </mxCell>
        <mxCell id="YS3wjuGzkb4AKNoPu0pF-22" value="" style="rounded=1;whiteSpace=wrap;html=1;fillColor=#e1d5e7;strokeColor=#9673a6;dashed=1;strokeWidth=3;dashPattern=1 1;" vertex="1" parent="1">
          <mxGeometry x="541" y="211.88" width="278" height="280" as="geometry" />
        </mxCell>
        <mxCell id="YS3wjuGzkb4AKNoPu0pF-25" value="" style="rounded=1;whiteSpace=wrap;html=1;" vertex="1" parent="1">
          <mxGeometry x="541" y="196.88" width="70" height="70" as="geometry" />
        </mxCell>
        <mxCell id="YS3wjuGzkb4AKNoPu0pF-26" value="" style="outlineConnect=0;dashed=0;verticalLabelPosition=bottom;verticalAlign=top;align=center;html=1;shape=mxgraph.aws3.api_gateway;fillColor=#D9A741;gradientColor=none;dashPattern=1 1;fontColor=#000000;strokeColor=#D79B00;strokeWidth=3;" vertex="1" parent="1">
          <mxGeometry x="554" y="206.88" width="44" height="50" as="geometry" />
        </mxCell>
        <mxCell id="YS3wjuGzkb4AKNoPu0pF-27" value="&lt;b&gt;API Gateway (Resource)&lt;/b&gt;" style="text;html=1;align=left;verticalAlign=middle;resizable=0;points=[];autosize=1;strokeColor=none;fillColor=none;fontColor=#000000;" vertex="1" parent="1">
          <mxGeometry x="611" y="216.88" width="160" height="30" as="geometry" />
        </mxCell>
        <mxCell id="YS3wjuGzkb4AKNoPu0pF-39" style="edgeStyle=orthogonalEdgeStyle;rounded=0;orthogonalLoop=1;jettySize=auto;html=1;exitX=0;exitY=0.5;exitDx=0;exitDy=0;fontColor=#333333;strokeWidth=3;entryX=-0.002;entryY=0.535;entryDx=0;entryDy=0;entryPerimeter=0;fillColor=#e1d5e7;strokeColor=#9673a6;" edge="1" parent="1" source="YS3wjuGzkb4AKNoPu0pF-28" target="YS3wjuGzkb4AKNoPu0pF-22">
          <mxGeometry relative="1" as="geometry">
            <mxPoint x="500" y="360" as="targetPoint" />
            <Array as="points">
              <mxPoint x="510" y="414" />
              <mxPoint x="510" y="362" />
              <mxPoint x="540" y="362" />
            </Array>
          </mxGeometry>
        </mxCell>
        <mxCell id="YS3wjuGzkb4AKNoPu0pF-40" style="edgeStyle=orthogonalEdgeStyle;rounded=0;orthogonalLoop=1;jettySize=auto;html=1;exitX=0;exitY=0.5;exitDx=0;exitDy=0;fontColor=#333333;strokeWidth=5;fillColor=#f5f5f5;strokeColor=#666666;entryX=0.75;entryY=1;entryDx=0;entryDy=0;" edge="1" parent="1" source="YS3wjuGzkb4AKNoPu0pF-28" target="YS3wjuGzkb4AKNoPu0pF-13">
          <mxGeometry relative="1" as="geometry">
            <mxPoint x="470" y="360" as="targetPoint" />
            <Array as="points">
              <mxPoint x="490" y="414" />
              <mxPoint x="443" y="414" />
            </Array>
          </mxGeometry>
        </mxCell>
        <mxCell id="YS3wjuGzkb4AKNoPu0pF-28" value="" style="rounded=1;whiteSpace=wrap;html=1;" vertex="1" parent="1">
          <mxGeometry x="560" y="360" width="110" height="107.5" as="geometry" />
        </mxCell>
        <mxCell id="YS3wjuGzkb4AKNoPu0pF-30" value="&lt;b&gt;API Gateway&lt;/b&gt;&lt;br&gt;Method" style="outlineConnect=0;dashed=0;verticalLabelPosition=bottom;verticalAlign=top;align=center;html=1;shape=mxgraph.aws3.api_gateway;fillColor=#D9A741;gradientColor=none;dashPattern=1 1;fontColor=#333333;strokeColor=#D79B00;strokeWidth=3;" vertex="1" parent="1">
          <mxGeometry x="588.5" y="366.5" width="53" height="65" as="geometry" />
        </mxCell>
        <mxCell id="YS3wjuGzkb4AKNoPu0pF-37" style="edgeStyle=orthogonalEdgeStyle;rounded=0;orthogonalLoop=1;jettySize=auto;html=1;exitX=0.5;exitY=1;exitDx=0;exitDy=0;entryX=1;entryY=0.5;entryDx=0;entryDy=0;fontColor=#333333;strokeWidth=3;fillColor=#e1d5e7;strokeColor=#9673a6;" edge="1" parent="1" source="YS3wjuGzkb4AKNoPu0pF-31" target="YS3wjuGzkb4AKNoPu0pF-28">
          <mxGeometry relative="1" as="geometry" />
        </mxCell>
        <mxCell id="YS3wjuGzkb4AKNoPu0pF-45" style="edgeStyle=orthogonalEdgeStyle;rounded=0;orthogonalLoop=1;jettySize=auto;html=1;exitX=1;exitY=0.25;exitDx=0;exitDy=0;fontColor=#333333;strokeWidth=5;fillColor=#f5f5f5;strokeColor=#666666;" edge="1" parent="1" source="YS3wjuGzkb4AKNoPu0pF-31" target="YS3wjuGzkb4AKNoPu0pF-18">
          <mxGeometry relative="1" as="geometry">
            <Array as="points">
              <mxPoint x="810" y="303" />
              <mxPoint x="810" y="160" />
              <mxPoint x="680" y="160" />
            </Array>
          </mxGeometry>
        </mxCell>
        <mxCell id="YS3wjuGzkb4AKNoPu0pF-31" value="" style="rounded=1;whiteSpace=wrap;html=1;" vertex="1" parent="1">
          <mxGeometry x="680" y="275.76" width="110" height="107.5" as="geometry" />
        </mxCell>
        <mxCell id="YS3wjuGzkb4AKNoPu0pF-32" value="&lt;b&gt;API Gateway&lt;/b&gt;&lt;br&gt;Deployment" style="outlineConnect=0;dashed=0;verticalLabelPosition=bottom;verticalAlign=top;align=center;html=1;shape=mxgraph.aws3.api_gateway;fillColor=#D9A741;gradientColor=none;dashPattern=1 1;fontColor=#333333;strokeColor=#D79B00;strokeWidth=3;" vertex="1" parent="1">
          <mxGeometry x="708.5" y="282.26" width="53" height="65" as="geometry" />
        </mxCell>
        <mxCell id="YS3wjuGzkb4AKNoPu0pF-36" style="edgeStyle=orthogonalEdgeStyle;rounded=0;orthogonalLoop=1;jettySize=auto;html=1;exitX=0;exitY=0.5;exitDx=0;exitDy=0;entryX=1;entryY=0.5;entryDx=0;entryDy=0;fontColor=#333333;strokeWidth=3;fillColor=#e1d5e7;strokeColor=#9673a6;" edge="1" parent="1" source="YS3wjuGzkb4AKNoPu0pF-33" target="YS3wjuGzkb4AKNoPu0pF-31">
          <mxGeometry relative="1" as="geometry">
            <Array as="points">
              <mxPoint x="830" y="346" />
              <mxPoint x="830" y="330" />
            </Array>
          </mxGeometry>
        </mxCell>
        <mxCell id="YS3wjuGzkb4AKNoPu0pF-44" style="edgeStyle=orthogonalEdgeStyle;rounded=0;orthogonalLoop=1;jettySize=auto;html=1;exitX=0.5;exitY=1;exitDx=0;exitDy=0;entryX=0.5;entryY=1;entryDx=0;entryDy=0;fontColor=#333333;strokeWidth=5;fillColor=#f5f5f5;strokeColor=#666666;" edge="1" parent="1" source="YS3wjuGzkb4AKNoPu0pF-33" target="YS3wjuGzkb4AKNoPu0pF-13">
          <mxGeometry relative="1" as="geometry">
            <Array as="points">
              <mxPoint x="935" y="520" />
              <mxPoint x="415" y="520" />
            </Array>
          </mxGeometry>
        </mxCell>
        <mxCell id="YS3wjuGzkb4AKNoPu0pF-33" value="" style="rounded=1;whiteSpace=wrap;html=1;" vertex="1" parent="1">
          <mxGeometry x="880" y="291.88" width="110" height="107.5" as="geometry" />
        </mxCell>
        <mxCell id="YS3wjuGzkb4AKNoPu0pF-34" value="&lt;font color=&quot;#000000&quot;&gt;&lt;b&gt;API Gateway&lt;/b&gt;&lt;br&gt;Permission&lt;br&gt;&lt;/font&gt;" style="outlineConnect=0;dashed=0;verticalLabelPosition=bottom;verticalAlign=top;align=center;html=1;shape=mxgraph.aws3.lambda;fillColor=#F58534;gradientColor=none;fontColor=#6600CC;" vertex="1" parent="1">
          <mxGeometry x="907.5" y="298.51" width="55" height="62" as="geometry" />
        </mxCell>
        <mxCell id="YS3wjuGzkb4AKNoPu0pF-41" style="edgeStyle=orthogonalEdgeStyle;rounded=0;orthogonalLoop=1;jettySize=auto;html=1;exitX=0;exitY=0.5;exitDx=0;exitDy=0;fontColor=#333333;strokeWidth=5;entryX=-0.001;entryY=0.462;entryDx=0;entryDy=0;entryPerimeter=0;fillColor=#f5f5f5;strokeColor=#666666;" edge="1" parent="1" target="YS3wjuGzkb4AKNoPu0pF-18">
          <mxGeometry relative="1" as="geometry">
            <mxPoint x="470" y="340.005" as="targetPoint" />
            <mxPoint x="560" y="413.77" as="sourcePoint" />
            <Array as="points">
              <mxPoint x="490" y="414" />
              <mxPoint x="490" y="333" />
              <mxPoint x="520" y="333" />
            </Array>
          </mxGeometry>
        </mxCell>
      </root>
    </mxGraphModel>
  </diagram>
</mxfile>
